<svg version="1.1" viewBox="0.000000 0.000000 640.000000 512.000000" xmlns="http://www.w3.org/2000/svg" xmlns:xlink="http://www.w3.org/1999/xlink" overflow="hidden"><path d=" M 424.429993 219.729004 C 416.123993 134.727005 344.135010 68.000000 256.919006 68.000000 C 184.653000 68.000000 120.695000 114.515999 97.713997 182.074005 C 43.168999 190.102997 1.084000 236.895996 1.084000 293.656006 C 1.084000 355.954010 51.751999 406.622009 114.327003 406.622009 L 403.941010 406.622009 C 456.269989 406.622009 498.910004 364.260010 498.910004 311.928986 C 498.910004 266.798004 466.791992 228.865997 424.429993 219.729004 Z M 403.941010 364.259003 L 114.327003 364.259003 C 75.287003 364.259003 43.445999 332.695007 43.445999 293.654999 C 43.445999 254.615005 75.287003 223.050995 114.327003 223.050995 C 133.154007 223.050995 150.875000 230.526001 164.164993 243.817001 C 184.128006 263.779999 214.298004 233.589996 194.345001 213.636993 C 179.669998 199.238998 161.673004 189.272003 142.292007 184.287994 C 162.227005 139.988007 207.082001 110.362000 256.920013 110.362000 C 326.415985 110.362000 382.898987 166.845001 382.898987 236.063995 C 382.898987 249.632004 380.683990 262.920990 376.529999 275.657990 C 367.587006 303.174988 408.662994 314.596985 416.677002 288.947998 C 419.446014 280.641998 421.661011 272.058990 423.045990 263.476013 C 442.427002 270.951996 456.548004 289.778992 456.548004 311.928986 C 456.548004 340.723999 433.013000 364.259003 403.941010 364.259003 Z M 639.010010 311.928986 C 639.010010 355.953003 626.273010 398.315002 601.908020 434.585999 C 597.755005 440.678009 591.109985 444.000000 584.187988 444.000000 C 567.870972 444.000000 557.060974 425.174011 566.744995 411.050995 C 586.125977 381.701996 596.648010 347.368988 596.648010 311.928986 C 596.648010 276.489014 586.127014 242.156006 566.744995 213.084000 C 551.090027 190.253006 586.106018 165.843994 601.908020 189.550003 C 626.273987 225.542999 639.010010 267.906006 639.010010 311.928986 Z M 568.130005 311.928986 C 568.130005 343.493988 558.992981 373.950012 541.273010 400.253998 C 537.119995 406.345001 530.474976 409.390015 523.552979 409.390015 C 506.351990 409.390015 496.531006 390.411011 506.109985 376.441986 C 519.122986 357.338013 525.768005 335.187012 525.768005 311.928986 C 525.768005 288.947998 519.122986 266.520996 506.109985 247.417007 C 490.348999 224.431000 525.117981 200.322006 541.273010 223.882004 C 558.992004 249.908005 568.130005 280.364990 568.130005 311.928986 Z" stroke="none" stroke-width="1.000000" stroke-dasharray="" stroke-dashoffset="1.000000" fill="#00B050" fill-opacity="1.000000"/></svg>